<?xml version="1.0" encoding="utf-8"?>
<!-- Generated by IcoMoon.io -->
<!DOCTYPE svg PUBLIC "-//W3C//DTD SVG 1.1//EN" "http://www.w3.org/Graphics/SVG/1.1/DTD/svg11.dtd">
<svg version="1.1" xmlns="http://www.w3.org/2000/svg" xmlns:xlink="http://www.w3.org/1999/xlink" width="35" height="36" viewBox="0 0 35 36">
<path fill="#000000" d="M33.837 18.375q0 5.28-3.082 9.497t-7.962 5.837q-0.568 0.105-0.831-0.147t-0.263-0.631v-4.438q0-2.040-1.094-2.987 1.199-0.126 2.156-0.379t1.977-0.82 1.704-1.399 1.115-2.209 0.431-3.166q0-2.545-1.662-4.333 0.778-1.914-0.168-4.291-0.589-0.189-1.704 0.231t-1.935 0.926l-0.799 0.505q-1.956-0.547-4.039-0.547t-4.039 0.547q-0.337-0.231-0.894-0.568t-1.756-0.81-1.809-0.284q-0.926 2.377-0.147 4.291-1.662 1.788-1.662 4.333 0 1.788 0.431 3.155t1.104 2.209 1.693 1.409 1.977 0.82 2.156 0.379q-0.841 0.757-1.031 2.167-0.442 0.21-0.947 0.315t-1.199 0.105-1.378-0.452-1.167-1.315q-0.4-0.673-1.020-1.094t-1.041-0.505l-0.421-0.063q-0.442 0-0.61 0.095t-0.105 0.242 0.189 0.295 0.273 0.252l0.147 0.105q0.463 0.21 0.915 0.799t0.663 1.073l0.21 0.484q0.273 0.799 0.926 1.294t1.409 0.631 1.462 0.147 1.167-0.074l0.484-0.084q0 0.799 0.011 1.872t0.011 1.136q0 0.379-0.273 0.631t-0.841 0.147q-4.88-1.62-7.962-5.837t-3.082-9.497q0-4.396 2.167-8.109t5.879-5.879 8.109-2.167 8.109 2.167 5.879 5.879 2.167 8.109z"></path>
</svg>
