<?xml version="1.0" encoding="utf-8"?>
<!-- Generated by IcoMoon.io -->
<!DOCTYPE svg PUBLIC "-//W3C//DTD SVG 1.1//EN" "http://www.w3.org/Graphics/SVG/1.1/DTD/svg11.dtd">
<svg version="1.1" xmlns="http://www.w3.org/2000/svg" xmlns:xlink="http://www.w3.org/1999/xlink" width="33" height="36" viewBox="0 0 33 36">
<path fill="#000000" d="M33.434 7.647q-1.421 2.079-3.437 3.543 0.021 0.297 0.021 0.891 0 2.758-0.806 5.505t-2.45 5.272-3.914 4.466-5.473 3.097-6.852 1.156q-5.749 0-10.522-3.076 0.743 0.085 1.655 0.085 4.773 0 8.507-2.928-2.228-0.042-3.988-1.368t-2.418-3.384q0.7 0.106 1.294 0.106 0.912 0 1.803-0.233-2.376-0.488-3.935-2.365t-1.559-4.36v-0.085q1.443 0.806 3.097 0.87-1.4-0.933-2.228-2.44t-0.827-3.267q0-1.867 0.933-3.458 2.567 3.161 6.248 5.060t7.881 2.111q-0.17-0.806-0.17-1.57 0-2.843 2.005-4.847t4.847-2.005q2.97 0 5.007 2.164 2.312-0.446 4.349-1.655-0.785 2.44-3.012 3.776 1.973-0.212 3.946-1.061z"></path>
</svg>
