<?xml version="1.0" encoding="utf-8"?>
<!-- Generated by IcoMoon.io -->
<!DOCTYPE svg PUBLIC "-//W3C//DTD SVG 1.1//EN" "http://www.w3.org/Graphics/SVG/1.1/DTD/svg11.dtd">
<svg version="1.1" xmlns="http://www.w3.org/2000/svg" xmlns:xlink="http://www.w3.org/1999/xlink" width="99" height="96" viewBox="0 0 99 96">
<path fill="#000000" d="M66 87.036c0 1.659 1.341 3 3 3h3c1.656 0 3-1.341 3-3v-6.186h-9v6.186zM24 87.036c0 1.659 1.341 3 3 3h3c1.659 0 3-1.341 3-3v-6.186h-9v6.186zM14.955 77.187c0 2.010 1.632 3.645 3.645 3.645h61.788c2.013 0 3.645-1.635 3.645-3.645 0-2.016 0-2.145 0-2.145h-69.078c0 0 0 0.129 0 2.145zM96 30.036v-6h-11.97l0.003-3.264c0-7.293-7.467-14.811-35.922-14.811-25.014 0-33.156 7.518-33.156 14.811v3.264h-11.955v6h-3v12h3v6h11.955v23.922h69l0.066-44.922h8.979v3h-3v12h3v3h-9v3h12v-6h3v-12h-3zM14.955 45.036h-8.955v-3h3v-12h-3v-3h8.955v18zM37.5 14.85h24c0.828 0 1.5 0.672 1.5 1.5s-0.672 1.5-1.5 1.5h-24c-0.828 0-1.5-0.672-1.5-1.5s0.672-1.5 1.5-1.5zM21.123 27.687c0-2.013 1.632-3.645 3.645-3.645h19.542c2.013 0 3.645 1.632 3.645 3.645v10.749c0 2.016-1.632 3.648-3.645 3.648h-19.542c-2.013 0-3.645-1.632-3.645-3.648v-10.749zM26.964 65.214c-3.021 0-5.466-2.448-5.466-5.466 0-3.024 2.445-5.466 5.466-5.466s5.469 2.442 5.469 5.466c0.003 3.018-2.448 5.466-5.469 5.466zM36 51.036h27v3h-27v-3zM63.096 65.829h-27.018v-2.895h27.018v2.895zM63.096 59.853h-27.018v-2.895h27.018v2.895zM72.024 65.403c-3.021 0-5.466-2.448-5.466-5.466s2.445-5.466 5.466-5.466 5.469 2.448 5.469 5.466-2.448 5.466-5.469 5.466zM78.015 38.436c0 2.016-1.632 3.648-3.648 3.648h-19.686c-2.016 0-3.648-1.632-3.648-3.648v-10.749c0-2.013 1.632-3.645 3.648-3.645h19.686c2.016 0 3.648 1.632 3.648 3.645v10.749z"></path>
</svg>
