<?xml version="1.0" encoding="utf-8"?>
<!-- Generated by IcoMoon.io -->
<!DOCTYPE svg PUBLIC "-//W3C//DTD SVG 1.1//EN" "http://www.w3.org/Graphics/SVG/1.1/DTD/svg11.dtd">
<svg version="1.1" xmlns="http://www.w3.org/2000/svg" xmlns:xlink="http://www.w3.org/1999/xlink" width="126" height="96" viewBox="0 0 126 96">
<path fill="#000000" d="M118.5 18h-22.5c-5.781 0-5.994-5.391-6-6v-3c0-3.774-4.17-9-12-9h-29.907c-8.805 0-12 5.382-12 9v2.982c-0.003 0.246-0.144 6.018-6.093 6.018h-22.5c-4.137 0-7.5 3.366-7.5 7.5v54c0 4.134 3.363 7.5 7.5 7.5h18c0.828 0 1.5-0.672 1.5-1.5s-0.672-1.5-1.5-1.5h-18c-2.481 0-4.5-2.019-4.5-4.5v-37.5h24c-1.932 4.62-3 9.687-3 15 0 21.504 17.496 39 39 39s39-17.496 39-39c0-5.313-1.077-10.38-3.009-15h24.009v37.5c0 2.481-2.019 4.5-4.5 4.5h-21c-0.828 0-1.5 0.672-1.5 1.5s0.672 1.5 1.5 1.5h21c4.137 0 7.5-3.366 7.5-7.5v-54c0-4.134-3.363-7.5-7.5-7.5zM63 93c-19.851 0-36-16.149-36-36s16.149-36 36-36 36 16.149 36 36-16.149 36-36 36zM98.25 39c-0.222 0-0.429 0.054-0.618 0.141-6.492-12.537-19.566-21.141-34.632-21.141s-28.14 8.604-34.632 21.141c-0.189-0.087-0.396-0.141-0.618-0.141h-24.75v-13.5c0-2.481 2.019-4.5 4.5-4.5h22.5c7.104 0 9.057-5.874 9.093-9v-3c0-2.412 2.397-6 9-6h29.907c6.282 0 9 3.972 9 6v3c0 3.114 1.881 9 9 9h22.5c2.481 0 4.5 2.019 4.5 4.5v13.5h-24.75zM28.5 15c0.828 0 1.5-0.672 1.5-1.5v-3c0-2.481-2.019-4.5-4.5-4.5h-12c-2.481 0-4.5 2.019-4.5 4.5v3c0 0.828 0.672 1.5 1.5 1.5s1.5-0.672 1.5-1.5v-3c0-0.828 0.675-1.5 1.5-1.5h12c0.825 0 1.5 0.672 1.5 1.5v3c0 0.828 0.672 1.5 1.5 1.5zM63 30c-14.889 0-27 12.114-27 27s12.111 27 27 27 27-12.114 27-27-12.111-27-27-27zM63 81c-13.233 0-24-10.767-24-24s10.767-24 24-24 24 10.767 24 24-10.767 24-24 24z"></path>
</svg>
