<?xml version="1.0" encoding="utf-8"?>
<!-- Generated by IcoMoon.io -->
<!DOCTYPE svg PUBLIC "-//W3C//DTD SVG 1.1//EN" "http://www.w3.org/Graphics/SVG/1.1/DTD/svg11.dtd">
<svg version="1.1" xmlns="http://www.w3.org/2000/svg" xmlns:xlink="http://www.w3.org/1999/xlink" width="96" height="96" viewBox="0 0 96 96">
<path fill="#000000" d="M88.5 63h-8.073c-0.135-0.717-0.3-1.419-0.48-2.118l14.397-7.197c1.482-0.741 2.079-2.544 1.341-4.026-0.744-1.482-2.538-2.076-4.026-1.341l-13.734 6.864c-5.238-11.304-16.665-19.182-29.925-19.182-16.146 0-29.595 11.664-32.427 27h-8.073c-4.134 0-7.5 3.363-7.5 7.5 0 1.47 0.54 2.889 1.515 3.987l10.485 11.796v2.217c0 4.137 3.366 7.5 7.5 7.5h57c4.137 0 7.5-3.363 7.5-7.5v-2.217l10.482-11.796c0.978-1.098 1.518-2.517 1.518-3.987 0-4.137-3.363-7.5-7.5-7.5zM77.397 63h-1.686l1.494-0.75c0.057 0.252 0.138 0.495 0.192 0.75zM48 39c12.087 0 22.5 7.2 27.246 17.523l-2.673 1.335c-4.248-9.345-13.638-15.858-24.573-15.858-12.846 0-23.577 8.979-26.31 21h-3.084c2.787-13.677 14.907-24 29.394-24zM61.728 63c-2.319-5.289-7.593-9-13.728-9s-11.406 3.711-13.728 9h-3.222c2.478-6.978 9.129-12 16.95-12 7.395 0 13.764 4.488 16.524 10.881l-2.796 1.119zM48 60c-2.649 0-5.010 1.173-6.66 3h-3.672c2.082-3.567 5.91-6 10.332-6 4.419 0 8.25 2.433 10.329 6h-3.675c-1.644-1.827-4.005-3-6.654-3zM48 48c-9.495 0-17.526 6.336-20.115 15h-3.096c2.676-10.332 12.051-18 23.211-18 9.738 0 18.129 5.844 21.885 14.202l-2.679 1.338c-3.264-7.371-10.641-12.54-19.206-12.54zM78 84v4.5c0 0.828-0.675 1.5-1.5 1.5h-57c-0.828 0-1.5-0.672-1.5-1.5v-4.5l-12-13.5c0-0.828 0.672-1.5 1.5-1.5h81c0.825 0 1.5 0.672 1.5 1.5l-12 13.5zM23.931 35.136c-0.021-0.042-0.036-0.081-0.054-0.126-1.557-3.759-0.009-7.446 1.389-10.773 1.323-3.156 2.496-5.952 1.284-8.679-0.006-0.012-0.009-0.024-0.015-0.036-0.003-0.009-0.006-0.018-0.009-0.027-0.003-0.006-0.003-0.012-0.003-0.018-0.060-0.159-0.096-0.327-0.096-0.507 0-0.81 0.657-1.47 1.47-1.47 0.624 0 1.155 0.39 1.368 0.939 1.674 3.813 0.153 7.563-1.266 10.941-1.314 3.126-2.382 6.030-1.257 8.676 0.006 0.021 0.006 0.039 0 0.060 0.033 0.12 0.054 0.246 0.054 0.375 0 0.831-0.675 1.509-1.506 1.509-0.582 0-1.080-0.33-1.329-0.81-0.003 0-0.006 0-0.006 0-0.009-0.018-0.015-0.036-0.024-0.054zM60.462 34.698c-0.018-0.039-0.033-0.081-0.048-0.12-1.557-3.759-0.012-7.449 1.383-10.776 1.326-3.156 2.496-5.952 1.284-8.679 0-0.012-0.006-0.024-0.012-0.036-0.006-0.009-0.006-0.018-0.012-0.027 0-0.006 0-0.012 0-0.018-0.057-0.159-0.099-0.327-0.099-0.507 0-0.81 0.66-1.47 1.47-1.47 0.627 0 1.155 0.387 1.371 0.939 1.674 3.813 0.153 7.563-1.266 10.941-1.314 3.126-2.379 6.030-1.26 8.676 0.012 0.021 0.012 0.039 0.006 0.060 0.030 0.12 0.054 0.246 0.054 0.375 0 0.831-0.681 1.509-1.512 1.509-0.579 0-1.077-0.333-1.329-0.813h-0.006c-0.006-0.018-0.012-0.036-0.024-0.054zM45.057 21.636c-0.021-0.042-0.036-0.081-0.057-0.123-1.56-3.759-0.012-7.449 1.386-10.776 1.323-3.156 2.496-5.952 1.284-8.679-0.003-0.012-0.009-0.024-0.012-0.036-0.003-0.009-0.006-0.018-0.009-0.027-0.003-0.006-0.003-0.012-0.003-0.018-0.060-0.159-0.096-0.327-0.096-0.507 0-0.81 0.66-1.47 1.47-1.47 0.627 0 1.155 0.39 1.371 0.942 1.674 3.813 0.153 7.563-1.266 10.941-1.314 3.126-2.382 6.030-1.257 8.676 0.006 0.021 0.006 0.039 0 0.060 0.033 0.12 0.054 0.246 0.054 0.375 0 0.831-0.675 1.509-1.506 1.509-0.579 0-1.077-0.333-1.329-0.813-0.003 0-0.006 0-0.006 0-0.009-0.018-0.015-0.036-0.024-0.054z"></path>
</svg>
