<?xml version="1.0" encoding="utf-8"?>
<!-- Generated by IcoMoon.io -->
<!DOCTYPE svg PUBLIC "-//W3C//DTD SVG 1.1//EN" "http://www.w3.org/Graphics/SVG/1.1/DTD/svg11.dtd">
<svg version="1.1" xmlns="http://www.w3.org/2000/svg" xmlns:xlink="http://www.w3.org/1999/xlink" width="90" height="96" viewBox="0 0 90 96">
<path fill="#000000" d="M1.701 72c2.355 4.080 7.644 6.237 15.291 6.237 0 0 0 0 0.003 0 3.438 0 7.221-0.483 11.166-1.314 3.798 11.637 9.861 19.077 16.839 19.077s13.041-7.44 16.839-19.077c3.948 0.828 7.731 1.314 11.169 1.314 0 0 0 0 0 0 7.644 0 12.933-2.157 15.288-6.237 3.048-5.283 0.351-14.16-8.898-24 9.249-9.84 11.946-18.717 8.898-24-2.355-4.080-7.644-6.237-15.291-6.237-3.438 0-7.224 0.483-11.169 1.314-3.795-11.637-9.858-19.077-16.836-19.077s-13.041 7.44-16.839 19.077c-3.948-0.831-7.734-1.314-11.169-1.314-7.647 0-12.936 2.157-15.291 6.237-3.048 5.283-0.351 14.16 8.898 24-9.249 9.84-11.949 18.717-8.898 24zM45 93c-5.517 0-10.548-6.597-13.881-16.737 4.509-1.143 9.198-2.76 13.881-4.797 4.683 2.037 9.372 3.654 13.881 4.797-3.333 10.14-8.364 16.737-13.881 16.737zM27 48c0-3.492 0.186-6.891 0.504-10.179 2.679-1.866 5.511-3.684 8.496-5.409 2.952-1.704 5.973-3.231 9-4.599 3.027 1.365 6.048 2.892 9 4.599 2.985 1.722 5.814 3.54 8.496 5.409 0.318 3.288 0.504 6.687 0.504 10.179s-0.186 6.891-0.504 10.179c-2.679 1.866-5.511 3.684-8.496 5.409-2.952 1.704-5.973 3.231-9 4.599-3.027-1.365-6.048-2.892-9-4.599-2.985-1.722-5.814-3.54-8.496-5.409-0.318-3.288-0.504-6.687-0.504-10.179zM24.294 55.869c-3.438-2.583-6.552-5.235-9.258-7.869 2.706-2.634 5.82-5.286 9.258-7.869-0.177 2.562-0.294 5.175-0.294 7.869s0.117 5.307 0.294 7.869zM27.963 33.858c0.552-4.023 1.326-7.812 2.292-11.262 3.585 0.903 7.305 2.151 11.046 3.657-2.286 1.107-4.566 2.271-6.801 3.561-2.319 1.341-4.464 2.691-6.537 4.044zM48.696 26.253c3.741-1.506 7.461-2.754 11.046-3.657 0.966 3.45 1.74 7.239 2.292 11.262-2.070-1.353-4.218-2.703-6.537-4.044-2.232-1.29-4.512-2.454-6.801-3.561zM65.706 40.131c3.441 2.583 6.552 5.232 9.258 7.869-2.706 2.634-5.82 5.286-9.258 7.869 0.177-2.562 0.294-5.175 0.294-7.869s-0.117-5.307-0.294-7.869zM62.037 62.142c-0.552 4.023-1.326 7.812-2.292 11.262-3.585-0.903-7.305-2.151-11.046-3.657 2.289-1.104 4.569-2.271 6.804-3.561 2.316-1.341 4.461-2.691 6.534-4.044zM34.5 66.186c2.235 1.29 4.515 2.457 6.804 3.561-3.741 1.506-7.461 2.754-11.046 3.657-0.966-3.45-1.74-7.239-2.292-11.262 2.070 1.353 4.215 2.703 6.534 4.044zM85.701 70.5c-1.764 3.057-6.27 4.737-12.69 4.737-3.168 0-6.654-0.438-10.296-1.185 1.188-4.272 2.079-9.024 2.631-14.124 4.638-3.252 8.553-6.504 11.82-9.687 7.596 8.046 11.178 15.678 8.535 20.259zM73.008 20.763c6.42 0 10.929 1.683 12.69 4.737 2.646 4.581-0.939 12.213-8.535 20.259-3.267-3.18-7.182-6.435-11.82-9.687-0.552-5.1-1.443-9.852-2.631-14.124 3.642-0.747 7.131-1.185 10.296-1.185zM45 3c5.517 0 10.548 6.597 13.881 16.737-4.509 1.143-9.198 2.76-13.881 4.797-4.683-2.037-9.372-3.654-13.881-4.797 3.333-10.14 8.364-16.737 13.881-16.737zM4.299 25.5c1.764-3.057 6.27-4.737 12.69-4.737 3.168 0 6.654 0.438 10.296 1.185-1.188 4.272-2.079 9.024-2.631 14.124-4.638 3.252-8.553 6.504-11.82 9.687-7.596-8.046-11.178-15.678-8.535-20.259zM12.834 50.241c3.267 3.18 7.182 6.435 11.82 9.687 0.552 5.1 1.443 9.852 2.631 14.124-3.639 0.747-7.125 1.185-10.293 1.185 0 0-0.003 0-0.003 0-6.42 0-10.929-1.683-12.69-4.737-2.643-4.581 0.939-12.213 8.535-20.259zM45 55.5c4.134 0 7.5-3.363 7.5-7.5s-3.366-7.5-7.5-7.5-7.5 3.363-7.5 7.5 3.366 7.5 7.5 7.5zM45 43.5c2.481 0 4.5 2.019 4.5 4.5s-2.019 4.5-4.5 4.5-4.5-2.019-4.5-4.5 2.019-4.5 4.5-4.5z"></path>
</svg>
