<?xml version="1.0" encoding="utf-8"?>
<!-- Generated by IcoMoon.io -->
<!DOCTYPE svg PUBLIC "-//W3C//DTD SVG 1.1//EN" "http://www.w3.org/Graphics/SVG/1.1/DTD/svg11.dtd">
<svg version="1.1" xmlns="http://www.w3.org/2000/svg" xmlns:xlink="http://www.w3.org/1999/xlink" width="75" height="96" viewBox="0 0 75 96">
<path fill="#000000" d="M40.656 66c17.37 0 31.5-14.13 31.5-31.5s-14.13-31.5-31.5-31.5-31.5 14.13-31.5 31.5 14.13 31.5 31.5 31.5zM40.656 6c15.714 0 28.5 12.786 28.5 28.5s-12.786 28.5-28.5 28.5-28.5-12.786-28.5-28.5 12.783-28.5 28.5-28.5zM27.156 84c-3.423 0-6 2.577-6 6v4.5c0 0.828 0.672 1.5 1.5 1.5h36c0.828 0 1.5-0.672 1.5-1.5v-4.275c0-3.492-2.637-6.225-6-6.225h-27zM57.156 90.225v2.775h-33v-3c0-1.767 1.233-3 3-3h27c1.71 0 3 1.386 3 3.225zM39.165 74.934c0 0.018-0.009 0.030-0.009 0.048v4.812c0 0.828 0.672 1.5 1.5 1.5s1.5-0.672 1.5-1.5v-4.812c0-0.021-0.012-0.039-0.012-0.060 9.699-0.387 18.804-4.128 25.914-10.743l3.54 3.537c0.585 0.585 1.536 0.585 2.121 0s0.585-1.536 0-2.121l-4.578-4.578c-0.585-0.585-1.536-0.585-2.121 0-7.086 7.083-16.503 10.983-26.52 10.983s-19.434-3.9-26.517-10.983-10.983-16.5-10.983-26.517 3.9-19.434 10.983-26.517c0.585-0.585 0.585-1.536 0-2.121l-4.578-4.578c-0.585-0.585-1.536-0.585-2.121 0s-0.585 1.536 0 2.121l3.537 3.54c-6.993 7.509-10.821 17.241-10.821 27.555 0 10.815 4.212 20.988 11.862 28.638 7.332 7.332 16.989 11.463 27.303 11.796z"></path>
</svg>
