<?xml version="1.0" encoding="utf-8"?>
<!-- Generated by IcoMoon.io -->
<!DOCTYPE svg PUBLIC "-//W3C//DTD SVG 1.1//EN" "http://www.w3.org/Graphics/SVG/1.1/DTD/svg11.dtd">
<svg version="1.1" xmlns="http://www.w3.org/2000/svg" xmlns:xlink="http://www.w3.org/1999/xlink" width="96" height="96" viewBox="0 0 96 96">
<path fill="#000000" d="M53.78 36l8.040-30.84c0.12-0.378 0.18-0.782 0.18-1.2 0-2.178-1.76-3.96-3.942-3.96-1.238 0-2.34 0.56-3.058 1.46l-40.14 52.060c-0.54 0.68-0.86 1.54-0.86 2.48 0 2.2 1.8 4 4 4h24.218l-8.040 30.84c-0.122 0.38-0.18 0.782-0.18 1.2 0.002 2.18 1.762 3.96 3.942 3.96 1.24 0 2.34-0.558 3.060-1.46l40.138-52.060c0.542-0.68 0.862-1.538 0.862-2.48 0-2.2-1.8-4-4-4h-24.22z"></path>
</svg>
