<?xml version="1.0" encoding="utf-8"?>
<!-- Generated by IcoMoon.io -->
<!DOCTYPE svg PUBLIC "-//W3C//DTD SVG 1.1//EN" "http://www.w3.org/Graphics/SVG/1.1/DTD/svg11.dtd">
<svg version="1.1" xmlns="http://www.w3.org/2000/svg" xmlns:xlink="http://www.w3.org/1999/xlink" width="96" height="96" viewBox="0 0 96 96">
<path fill="#000000" d="M61.133 83.191l-3.375-1.945c0.102-0.586 0.18-1.183 0.18-1.805s-0.078-1.219-0.188-1.805l3.383-1.949c1.578-0.922 2.117-2.949 1.211-4.52-0.914-1.59-2.938-2.133-4.523-1.219l-3.41 1.969c-0.914-0.777-1.945-1.387-3.094-1.801v-3.918c0-1.832-1.488-3.316-3.316-3.316s-3.312 1.484-3.312 3.316v3.914c-1.149 0.41-2.184 1.027-3.098 1.805l-3.402-1.969c-1.59-0.914-3.617-0.375-4.531 1.215-0.914 1.578-0.363 3.609 1.219 4.524l3.367 1.945c-0.109 0.59-0.18 1.188-0.18 1.809s0.070 1.219 0.18 1.804l-3.367 1.945c-1.586 0.914-2.133 2.953-1.219 4.535s2.941 2.121 4.523 1.207l3.406-1.957c0.914 0.773 1.949 1.383 3.102 1.793v3.926c0 1.828 1.484 3.305 3.312 3.305s3.316-1.477 3.316-3.305v-3.926c1.148-0.41 2.192-1.020 3.098-1.805l3.406 1.969c1.586 0.914 3.609 0.375 4.523-1.207s0.375-3.609-1.211-4.535zM48 82.758c-1.828 0-3.316-1.488-3.316-3.316s1.488-3.309 3.316-3.309 3.313 1.481 3.313 3.309-1.484 3.316-3.313 3.316zM88.906 74.297l-2.266-0.602c-0.055-0.719-0.227-1.402-0.543-2.059l1.645-1.645c0.773-0.773 0.77-2.023 0-2.785-0.766-0.769-2.008-0.773-2.781 0l-1.648 1.641c-0.649-0.305-1.34-0.48-2.055-0.539l-0.602-2.262c-0.281-1.047-1.359-1.676-2.414-1.395-1.051 0.285-1.664 1.363-1.391 2.414l0.602 2.231c-0.297 0.203-0.578 0.43-0.844 0.688-0.258 0.266-0.477 0.547-0.68 0.836l-2.23-0.602c-1.051-0.281-2.137 0.352-2.418 1.395-0.281 1.055 0.352 2.129 1.391 2.414l2.25 0.605c0.063 0.707 0.242 1.398 0.559 2.055l-1.652 1.652c-0.766 0.769-0.762 2.012 0.008 2.777 0.766 0.766 2.008 0.773 2.773 0.008l1.656-1.656c0.649 0.32 1.344 0.5 2.063 0.554l0.594 2.254c0.289 1.051 1.359 1.676 2.414 1.395 1.047-0.281 1.679-1.359 1.398-2.422l-0.602-2.231c0.281-0.199 0.57-0.422 0.836-0.68 0.258-0.262 0.477-0.551 0.68-0.84l2.234 0.602c1.051 0.281 2.133-0.348 2.41-1.391 0.281-1.047-0.34-2.125-1.387-2.414zM82.184 75.551c-0.773 0.773-2.020 0.77-2.789 0-0.762-0.762-0.77-2.012 0-2.785 0.769-0.766 2.020-0.766 2.789 0 0.762 0.769 0.762 2.023 0 2.785zM22.301 64.219l-2.227 0.598c-0.207-0.281-0.422-0.566-0.684-0.832-0.265-0.258-0.547-0.48-0.84-0.68l0.598-2.238c0.281-1.051-0.344-2.133-1.383-2.41-1.055-0.281-2.133 0.344-2.414 1.391l-0.609 2.262c-0.715 0.059-1.398 0.234-2.051 0.543l-1.652-1.645c-0.773-0.773-2.016-0.77-2.781 0-0.769 0.77-0.769 2.016 0 2.785l1.645 1.645c-0.309 0.656-0.488 1.348-0.543 2.059l-2.258 0.602c-1.055 0.289-1.68 1.359-1.398 2.414 0.285 1.047 1.363 1.664 2.418 1.391l2.227-0.606c0.199 0.301 0.422 0.582 0.691 0.844 0.258 0.258 0.539 0.488 0.832 0.68l-0.598 2.23c-0.281 1.055 0.344 2.141 1.39 2.422 1.055 0.281 2.125-0.344 2.406-1.395l0.609-2.25c0.715-0.059 1.406-0.238 2.063-0.551l1.648 1.648c0.766 0.773 2.008 0.758 2.781-0.008 0.762-0.762 0.773-2.008 0-2.777l-1.652-1.652c0.317-0.649 0.504-1.348 0.551-2.063l2.262-0.598c1.043-0.285 1.668-1.359 1.387-2.414-0.281-1.043-1.36-1.668-2.418-1.394zM16.605 69.555c-0.769 0.77-2.016 0.77-2.789 0-0.762-0.766-0.762-2.020 0-2.781 0.773-0.766 2.020-0.766 2.789 0s0.762 2.016 0 2.781zM96 33c0-11.578-9.422-21-21-21-0.996 0-1.98 0.070-2.961 0.211-5.601-7.633-14.441-12.211-24.039-12.211s-18.434 4.578-24.039 12.211c-0.981-0.141-1.965-0.211-2.961-0.211-11.578 0-21 9.422-21 21s9.422 21 21 21c2.567 0 5.078-0.469 7.445-1.375 5.429 4.734 12.336 7.375 19.555 7.375 7.227 0 14.125-2.641 19.555-7.375 2.367 0.906 4.879 1.375 7.445 1.375 11.578 0 21-9.422 21-21z"></path>
</svg>
