<?xml version="1.0" encoding="utf-8"?>
<!-- Generated by IcoMoon.io -->
<!DOCTYPE svg PUBLIC "-//W3C//DTD SVG 1.1//EN" "http://www.w3.org/Graphics/SVG/1.1/DTD/svg11.dtd">
<svg version="1.1" xmlns="http://www.w3.org/2000/svg" xmlns:xlink="http://www.w3.org/1999/xlink" width="96" height="96" viewBox="0 0 96 96">
<path fill="#000000" d="M74.496 34.335c-0.558-0.834-1.494-1.335-2.496-1.335h-3c-1.659 0-3 1.341-3 3v18c0 1.659 1.341 3 3 3h12c1.659 0 3-1.341 3-3v-4.5c0-0.591-0.177-1.173-0.504-1.665l-9-13.5zM81 54h-12v-18h3l9 13.5v4.5zM94.488 46.008l-12-18c-1.674-2.511-4.476-4.008-7.488-4.008h-12v-6c0-4.962-4.038-9-9-9h-45c-4.962 0-9 4.038-9 9v33c0 4.962 4.038 9 9 9v0 9c0 4.962 4.038 9 9 9h3.426c1.341 5.163 6 9 11.577 9 5.571 0 10.23-3.837 11.571-9h15.846c1.341 5.163 6 9 11.577 9 5.571 0 10.23-3.837 11.571-9h3.432c4.962 0 9-4.038 9-9v-18c0-1.782-0.522-3.51-1.512-4.992zM9 54c-1.656 0-3-1.341-3-3v-33c0-1.659 1.344-3 3-3h45c1.659 0 3 1.341 3 3v33c0 1.659-1.341 3-3 3h-45zM33.003 81c-3.315 0-6-2.688-6-6s2.685-6 6-6c3.312 0 6 2.688 6 6s-2.691 6-6 6zM72 81c-3.315 0-6-2.688-6-6s2.685-6 6-6c3.312 0 6 2.688 6 6s-2.688 6-6 6zM90 69c0 1.659-1.341 3-3 3h-3.429c-1.341-5.163-6-9-11.571-9-5.577 0-10.236 3.837-11.577 9h-15.846c-1.341-5.163-6-9-11.571-9-5.577 0-10.236 3.837-11.577 9h-3.429c-1.656 0-3-1.341-3-3v-9h39c4.962 0 9-4.038 9-9v-21h12c1.002 0 1.938 0.501 2.496 1.335l12 18c0.327 0.492 0.504 1.074 0.504 1.665v18z"></path>
</svg>
