<?xml version="1.0" encoding="utf-8"?>
<!-- Generated by IcoMoon.io -->
<!DOCTYPE svg PUBLIC "-//W3C//DTD SVG 1.1//EN" "http://www.w3.org/Graphics/SVG/1.1/DTD/svg11.dtd">
<svg version="1.1" xmlns="http://www.w3.org/2000/svg" xmlns:xlink="http://www.w3.org/1999/xlink" width="96" height="96" viewBox="0 0 96 96">
<path fill="#000000" d="M80.907 39c-1.659 0-3 0-3 0h-5.937l-0.039 3.768c1.794 1.023 2.976 2.967 2.976 5.232l0.126 20.814h-56.94v-20.814c0-2.214 1.212-4.128 3-5.169v-3.831h-6c0 0-1.344 0-3 0-1.659 0-3-1.344-3-3v-3c0-1.659 1.341-3 3-3 1.656 0 3 0 3 0v6h6v-9c0-3.312 2.688-6 6-6h39c3.312 0 6 2.688 6 6l-0.093 9h5.907v-6c0 0 1.341 0 3 0 1.656 0 3 1.341 3 3v3c0 1.656-1.344 3-3 3zM36.093 66h21v-3h-21v3zM36.093 60h21v-3h-21v3zM36.093 54h21v-3h-21v3zM24.093 63c0 1.656 1.341 3 3 3h3c1.656 0 3-1.344 3-3 0-1.659-1.344-3-3-3h-3c-1.656 0-3 1.341-3 3zM66.093 30c0-1.659-1.341-3-3-3h-33c-1.659 0-3 1.341-3 3v15h39v-15zM66.093 60h-3c-1.659 0-3 1.341-3 3 0 1.656 1.341 3 3 3h3c1.656 0 3-1.344 3-3 0-1.659-1.344-3-3-3zM69.093 18h-45c-3.312 0-6 2.688-6 6v-15c0-1.659 1.341-3 3-3h51c1.656 0 3 1.341 3 3v15c0-3.312-2.685-6-6-6zM75.093 74.814c0 1.656-1.344 3-3 3h-51c-1.659 0-3-1.344-3-3 0-1.659 0-3 0-3h57c0 0 0 1.341 0 3zM33.093 87c0 1.656-1.344 3-3 3h-3c-1.659 0-3-1.344-3-3v-6h9v6zM69.093 87c0 1.656-1.344 3-3 3h-3c-1.659 0-3-1.344-3-3v-6h9v6z"></path>
</svg>
