<?xml version="1.0" encoding="utf-8"?>
<!-- Generated by IcoMoon.io -->
<!DOCTYPE svg PUBLIC "-//W3C//DTD SVG 1.1//EN" "http://www.w3.org/Graphics/SVG/1.1/DTD/svg11.dtd">
<svg version="1.1" xmlns="http://www.w3.org/2000/svg" xmlns:xlink="http://www.w3.org/1999/xlink" width="36" height="36" viewBox="0 0 36 36">
<path fill="#000000" d="M26.273 9.727q3.402 0 5.799 2.436t2.397 5.838-2.397 5.838-5.799 2.436h-6.65v-3.17h6.65q2.088 0 3.595-1.508t1.508-3.595-1.508-3.595-3.595-1.508h-6.65v-3.17h6.65zM11.428 19.624v-3.248h13.145v3.248h-13.145zM4.623 18q0 2.088 1.508 3.595t3.595 1.508h6.65v3.17h-6.65q-3.402 0-5.799-2.436t-2.397-5.838 2.397-5.838 5.799-2.436h6.65v3.17h-6.65q-2.088 0-3.595 1.508t-1.508 3.595z"></path>
</svg>
