<?xml version="1.0" encoding="utf-8"?>
<!-- Generated by IcoMoon.io -->
<!DOCTYPE svg PUBLIC "-//W3C//DTD SVG 1.1//EN" "http://www.w3.org/Graphics/SVG/1.1/DTD/svg11.dtd">
<svg version="1.1" xmlns="http://www.w3.org/2000/svg" xmlns:xlink="http://www.w3.org/1999/xlink" width="28" height="36" viewBox="0 0 28 36">
<path fill="#000000" d="M18.105 26.877v2.654l-12.428 0.018v-2.654zM22.342 20.795v12.322l-0.018 0.615v0.018l-20.531-0.018v-12.937h2.127v10.863h16.312v-10.863h2.109zM6.029 22.342l12.375 1.143-0.228 2.637-12.393-1.143zM7.225 16.787l12.006 3.217-0.686 2.566-12.006-3.217zM10.090 10.652l10.705 6.328-1.354 2.285-10.705-6.328zM16.418 4.834l6.996 10.283-2.18 1.494-7.014-10.266zM24.381 2.25l2.127 12.252-2.619 0.457-2.127-12.252z"></path>
</svg>
