<?xml version="1.0" encoding="utf-8"?>
<!-- Generated by IcoMoon.io -->
<!DOCTYPE svg PUBLIC "-//W3C//DTD SVG 1.1//EN" "http://www.w3.org/Graphics/SVG/1.1/DTD/svg11.dtd">
<svg version="1.1" xmlns="http://www.w3.org/2000/svg" xmlns:xlink="http://www.w3.org/1999/xlink" width="35" height="36" viewBox="0 0 35 36">
<path fill="#000000" d="M30.416 3.309q0.67 0 1.148 0.478t0.478 1.148v26.129q0 0.67-0.478 1.148t-1.148 0.478h-7.479v-11.381h3.807l0.574-4.438h-4.38v-2.831q0-1.071 0.449-1.607t1.75-0.536l2.334-0.019v-3.96q-1.205-0.172-3.405-0.172-2.601 0-4.16 1.53t-1.559 4.323v3.271h-3.826v4.438h3.826v11.381h-14.059q-0.67 0-1.148-0.478t-0.478-1.148v-26.129q0-0.67 0.478-1.148t1.148-0.478h26.129z"></path>
</svg>
