<?xml version="1.0" encoding="utf-8"?>
<!-- Generated by IcoMoon.io -->
<!DOCTYPE svg PUBLIC "-//W3C//DTD SVG 1.1//EN" "http://www.w3.org/Graphics/SVG/1.1/DTD/svg11.dtd">
<svg version="1.1" xmlns="http://www.w3.org/2000/svg" xmlns:xlink="http://www.w3.org/1999/xlink" width="36" height="36" viewBox="0 0 36 36">
<path fill="#000000" d="M18 17.227q1.547 0 2.637-1.090t1.090-2.637-1.090-2.637-2.637-1.090-2.637 1.090-1.090 2.637 1.090 2.637 2.637 1.090zM18 3.023q4.359 0 7.418 3.059t3.059 7.418q0 2.18-1.090 4.992t-2.637 5.273-3.059 4.605-2.566 3.41l-1.125 1.195q-0.422-0.492-1.125-1.301t-2.531-3.234-3.199-4.711-2.496-5.168-1.125-5.063q0-4.359 3.059-7.418t7.418-3.059z"></path>
</svg>
