<?xml version="1.0" encoding="utf-8"?>
<!-- Generated by IcoMoon.io -->
<!DOCTYPE svg PUBLIC "-//W3C//DTD SVG 1.1//EN" "http://www.w3.org/Graphics/SVG/1.1/DTD/svg11.dtd">
<svg version="1.1" xmlns="http://www.w3.org/2000/svg" xmlns:xlink="http://www.w3.org/1999/xlink" width="26" height="36" viewBox="0 0 26 36">
<path fill="#000000" d="M18.614 8.461l-2.099 6.040 2.155 0.387q3.038-8.305 3.038-9.539 0-1.031-0.7-1.031-1.050 0-2.394 4.143zM13.107 21.112l0.608 1.621q0.681-0.773 1.307-1.234l-0.608-0.101t-0.709-0.129-0.598-0.157zM7.73 4.612q0 1.805 2.928 9.594 0.331-0.184 0.902-0.184 0.276 0 1.381 0.092l-2.228-6.464q-1.381-4.051-2.265-4.051-0.35 0-0.534 0.322t-0.184 0.691zM6.275 18.589q0 0.663 0.948 2.191t2.164 2.818 1.842 1.289q0.258 0 0.47-0.239t0.212-0.497q0-0.442-0.589-1.878-0.239-0.589-0.589-1.326t-0.875-1.639-1.133-1.492-1.142-0.589q-0.368 0-0.838 0.497t-0.47 0.866zM3.366 24.758q0 0.755 0.46 1.915 1.086 2.67 3.379 4.18t5.184 1.51q4.18 0 7.035-3.131 2.799-3.112 2.799-7.863 0-0.792-0.018-1.234t-0.212-1.142-0.562-1.031q-1.031-0.902-3.895-1.39t-4.981-0.488q-0.681 0-0.902 0.203-0.221 0.092-0.221 0.645 0 0.626 0.396 1.105t1.022 0.737 1.427 0.433 1.611 0.212 1.565 0.074 1.289 0h0.424q0.442 0 0.737 0.35 0.276 0.35 0.35 1.013-0.516 0.516-1.768 0.994-1.123 0.405-1.713 0.847-1.179 0.847-1.998 2.099t-0.819 2.523q0 0.571 0.341 1.63t0.341 1.611l-0.055 0.221q-0.074 0.221-0.074 0.258-2.523-0.184-2.689-3.978-0.147 0.037-0.755 0.037 0.037 0.129 0.037 0.387 0 0.976-0.746 1.648t-1.74 0.672q-1.51 0-3.066-1.436t-1.556-2.928q0-0.626 0.608-1.234 0.958 1.179 1.105 1.4 1.418 1.915 2.449 1.915 0.221 0 0.488-0.157t0.267-0.378q0-0.626-1.611-2.67t-2.145-2.044q-0.792 0-1.289 0.819t-0.497 1.667zM1.266 24.924q0-1.86 0.783-3.002t2.514-1.621q-0.516-1.363-0.516-1.915 0-1.142 1.123-2.265t2.247-1.123q0.534 0 1.289 0.276-3.002-8.508-3.002-10.441 0-1.473 0.755-2.403t2.191-0.93q2.412 0 5.985 10.699 0.11 0.313 0.147 0.424 0.11-0.295 0.534-1.464t0.801-2.182 0.994-2.348 1.188-2.265 1.298-1.593 1.409-0.663q1.307 0 2.062 0.902t0.755 2.247q0 1.989-2.928 10.128 1.123 0.276 1.851 0.847t1.077 1.436 0.479 1.722 0.129 2.035q0 2.762-0.866 5.156t-2.431 4.143-3.886 2.762-5.119 1.013q-2.044 0-4.107-0.773-2.744-1.050-4.751-3.526t-2.007-5.276z"></path>
</svg>
