<?xml version="1.0" encoding="utf-8"?>
<!-- Generated by IcoMoon.io -->
<!DOCTYPE svg PUBLIC "-//W3C//DTD SVG 1.1//EN" "http://www.w3.org/Graphics/SVG/1.1/DTD/svg11.dtd">
<svg version="1.1" xmlns="http://www.w3.org/2000/svg" xmlns:xlink="http://www.w3.org/1999/xlink" width="33" height="36" viewBox="0 0 33 36">
<path fill="#000000" d="M26.959 2.25h-20.918c-2.91 0-5.291 2.381-5.291 5.291v20.918c0 2.91 2.381 5.291 5.291 5.291h20.918c2.91 0 5.291-2.381 5.291-5.291v-20.918c0-2.91-2.381-5.291-5.291-5.291zM12.563 27.844h-3.938v-13.781h3.938v13.781zM10.594 12.094c-1.087 0-1.969-0.881-1.969-1.969s0.881-1.969 1.969-1.969 1.969 0.881 1.969 1.969-0.881 1.969-1.969 1.969zM26.344 27.844h-3.938v-7.875c0-1.087-0.881-1.969-1.969-1.969s-1.969 0.881-1.969 1.969v7.875h-3.938v-13.781h3.938v2.445c0.812-1.116 2.053-2.445 3.445-2.445 2.446 0 4.43 2.204 4.43 4.922v8.859z"></path>
</svg>
