<?xml version="1.0" encoding="utf-8"?>
<!-- Generated by IcoMoon.io -->
<!DOCTYPE svg PUBLIC "-//W3C//DTD SVG 1.1//EN" "http://www.w3.org/Graphics/SVG/1.1/DTD/svg11.dtd">
<svg version="1.1" xmlns="http://www.w3.org/2000/svg" xmlns:xlink="http://www.w3.org/1999/xlink" width="33" height="36" viewBox="0 0 33 36">
<path fill="#000000" d="M15.174 17.369q0 0.631 0.561 1.236t1.358 1.192 1.586 1.288 1.35 1.823 0.561 2.489q0 1.578-0.841 3.032-1.262 2.138-3.698 3.146t-5.223 1.008q-2.314 0-4.32-0.727t-3.006-2.41q-0.648-1.052-0.648-2.296 0-1.42 0.78-2.629t2.077-2.016q2.296-1.437 7.081-1.753-0.561-0.736-0.833-1.297t-0.272-1.28q0-0.631 0.368-1.49-0.806 0.070-1.192 0.070-2.594 0-4.373-1.691t-1.779-4.285q0-1.437 0.631-2.787t1.735-2.296q1.35-1.157 3.199-1.718t3.812-0.561h7.326l-2.419 1.542h-2.296q1.297 1.104 1.963 2.331t0.666 2.804q0 1.262-0.43 2.27t-1.034 1.63-1.218 1.139-1.043 1.078-0.43 1.157zM12.615 15.686q0.666 0 1.367-0.289t1.157-0.762q0.929-0.999 0.929-2.787 0-1.017-0.298-2.191t-0.85-2.27-1.481-1.814-2.051-0.719q-0.736 0-1.446 0.342t-1.148 0.92q-0.824 1.034-0.824 2.804 0 0.806 0.175 1.709t0.552 1.805 0.911 1.621 1.315 1.174 1.691 0.456zM12.65 30.987q1.017 0 1.954-0.228t1.735-0.684 1.28-1.28 0.482-1.91q0-0.438-0.123-0.859t-0.254-0.736-0.473-0.727-0.517-0.613-0.675-0.605-0.64-0.508-0.727-0.526-0.64-0.456q-0.281-0.035-0.841-0.035-0.929 0-1.84 0.123t-1.884 0.438-1.7 0.806-1.201 1.306-0.473 1.849q0 1.227 0.613 2.165t1.604 1.455 2.086 0.771 2.235 0.254zM26.847 15.634h3.733v1.893h-3.733v3.838h-1.84v-3.838h-3.716v-1.893h3.716v-3.803h1.84v3.803z"></path>
</svg>
