<?xml version="1.0" encoding="utf-8"?>
<!-- Generated by IcoMoon.io -->
<!DOCTYPE svg PUBLIC "-//W3C//DTD SVG 1.1//EN" "http://www.w3.org/Graphics/SVG/1.1/DTD/svg11.dtd">
<svg version="1.1" xmlns="http://www.w3.org/2000/svg" xmlns:xlink="http://www.w3.org/1999/xlink" width="665" height="544" viewBox="0 0 665 544">
<svg id="car" width="96" height="96" viewBox="0 0 96 96" x="0" y="0">
<path fill="#000000" d="M81 66h-69c-3.312 0-6-2.688-6-6v-15c0-3.312 2.688-6 6-6h3c0 0 4.437-13.5 5.748-18s2.688-6 6.003-6h39.498c3.312 0 4.314 0.936 6 6s5.751 18 5.751 18h3c3.312 0 6 2.688 6 6v15c0 3.312-2.688 6-6 6zM27 60h39v-3h-39v3zM66 39c0-3.312-2.688-6.375-6-6.375s-6 3.063-6 6.375c0 0.078 12 0.078 12 0zM27 54h39v-3h-39v3zM27 48h39v-3h-39v3zM12.186 51c0 3.312 2.688 6 6 6s6-2.688 6-6-2.688-6-6-6-6 2.688-6 6zM69.249 21c-0.75-2.064-1.341-3-3-3h-18.249v3h1.5c0.828 0 1.5 0.672 1.5 1.5s-0.672 1.5-1.5 1.5h-6c-0.828 0-1.5-0.672-1.5-1.5s0.672-1.5 1.5-1.5h1.5v-3h-18.249c-1.659 0-2.253 0.375-3 3-0.753 2.625-5.751 18-5.751 18h34.38c0.069-4.092 3.39-7.929 7.485-7.929 4.098 0 7.416 3.834 7.488 7.929h7.647c0 0-5.001-15.936-5.751-18zM74.814 45.186c-3.312 0-6 2.688-6 6s2.688 6 6 6 6-2.688 6-6-2.688-6-6-6zM21 76.5c0 2.484-2.016 4.5-4.5 4.5s-4.5-2.016-4.5-4.5v-7.5h9v7.5zM81 76.5c0 2.484-2.016 4.5-4.5 4.5s-4.5-2.016-4.5-4.5v-7.5h9v7.5z"></path>
</svg>
<svg id="truck" width="96" height="96" viewBox="0 0 96 96" x="112" y="0">
<path fill="#000000" d="M80.907 39c-1.659 0-3 0-3 0h-5.937l-0.039 3.768c1.794 1.023 2.976 2.967 2.976 5.232l0.126 20.814h-56.94v-20.814c0-2.214 1.212-4.128 3-5.169v-3.831h-6c0 0-1.344 0-3 0-1.659 0-3-1.344-3-3v-3c0-1.659 1.341-3 3-3 1.656 0 3 0 3 0v6h6v-9c0-3.312 2.688-6 6-6h39c3.312 0 6 2.688 6 6l-0.093 9h5.907v-6c0 0 1.341 0 3 0 1.656 0 3 1.341 3 3v3c0 1.656-1.344 3-3 3zM36.093 66h21v-3h-21v3zM36.093 60h21v-3h-21v3zM36.093 54h21v-3h-21v3zM24.093 63c0 1.656 1.341 3 3 3h3c1.656 0 3-1.344 3-3 0-1.659-1.344-3-3-3h-3c-1.656 0-3 1.341-3 3zM66.093 30c0-1.659-1.341-3-3-3h-33c-1.659 0-3 1.341-3 3v15h39v-15zM66.093 60h-3c-1.659 0-3 1.341-3 3 0 1.656 1.341 3 3 3h3c1.656 0 3-1.344 3-3 0-1.659-1.344-3-3-3zM69.093 18h-45c-3.312 0-6 2.688-6 6v-15c0-1.659 1.341-3 3-3h51c1.656 0 3 1.341 3 3v15c0-3.312-2.685-6-6-6zM75.093 74.814c0 1.656-1.344 3-3 3h-51c-1.659 0-3-1.344-3-3 0-1.659 0-3 0-3h57c0 0 0 1.341 0 3zM33.093 87c0 1.656-1.344 3-3 3h-3c-1.659 0-3-1.344-3-3v-6h9v6zM69.093 87c0 1.656-1.344 3-3 3h-3c-1.659 0-3-1.344-3-3v-6h9v6z"></path>
</svg>
<svg id="bus" width="99" height="96" viewBox="0 0 99 96" x="224" y="0">
<path fill="#000000" d="M66 87.036c0 1.659 1.341 3 3 3h3c1.656 0 3-1.341 3-3v-6.186h-9v6.186zM24 87.036c0 1.659 1.341 3 3 3h3c1.659 0 3-1.341 3-3v-6.186h-9v6.186zM14.955 77.187c0 2.010 1.632 3.645 3.645 3.645h61.788c2.013 0 3.645-1.635 3.645-3.645 0-2.016 0-2.145 0-2.145h-69.078c0 0 0 0.129 0 2.145zM96 30.036v-6h-11.97l0.003-3.264c0-7.293-7.467-14.811-35.922-14.811-25.014 0-33.156 7.518-33.156 14.811v3.264h-11.955v6h-3v12h3v6h11.955v23.922h69l0.066-44.922h8.979v3h-3v12h3v3h-9v3h12v-6h3v-12h-3zM14.955 45.036h-8.955v-3h3v-12h-3v-3h8.955v18zM37.5 14.85h24c0.828 0 1.5 0.672 1.5 1.5s-0.672 1.5-1.5 1.5h-24c-0.828 0-1.5-0.672-1.5-1.5s0.672-1.5 1.5-1.5zM21.123 27.687c0-2.013 1.632-3.645 3.645-3.645h19.542c2.013 0 3.645 1.632 3.645 3.645v10.749c0 2.016-1.632 3.648-3.645 3.648h-19.542c-2.013 0-3.645-1.632-3.645-3.648v-10.749zM26.964 65.214c-3.021 0-5.466-2.448-5.466-5.466 0-3.024 2.445-5.466 5.466-5.466s5.469 2.442 5.469 5.466c0.003 3.018-2.448 5.466-5.469 5.466zM36 51.036h27v3h-27v-3zM63.096 65.829h-27.018v-2.895h27.018v2.895zM63.096 59.853h-27.018v-2.895h27.018v2.895zM72.024 65.403c-3.021 0-5.466-2.448-5.466-5.466s2.445-5.466 5.466-5.466 5.469 2.448 5.469 5.466-2.448 5.466-5.469 5.466zM78.015 38.436c0 2.016-1.632 3.648-3.648 3.648h-19.686c-2.016 0-3.648-1.632-3.648-3.648v-10.749c0-2.013 1.632-3.645 3.648-3.645h19.686c2.016 0 3.648 1.632 3.648 3.645v10.749z"></path>
</svg>
<svg id="bike" width="96" height="96" viewBox="0 0 96 96" x="336" y="0">
<path fill="#000000" d="M72 27h-12v-6h12c1.656 0 3 1.341 3 3 0 1.656-1.344 3-3 3zM63 0c0-4.971-4.029-9-9-9h-15c-4.971 0-9 4.029-9 9v18h-3v-18c0-6.627 5.373-12 12-12h15c6.627 0 12 5.373 12 12v18h-3v-18zM33 27h-12c-1.659 0-3-1.344-3-3 0-1.659 1.341-3 3-3h12v6zM46.5 34.5c-5.802 0-10.5-4.701-10.5-10.5 0-5.802 4.698-10.5 10.5-10.5 5.799 0 10.5 4.698 10.5 10.5 0 5.799-4.701 10.5-10.5 10.5zM46.5 18c-3.312 0-6 2.688-6 6s2.688 6 6 6 6-2.688 6-6-2.688-6-6-6zM36.336 30.318c2.118 3.399 5.862 5.682 10.164 5.682s8.043-2.283 10.164-5.682c5.34 1.215 9.336 5.973 9.336 11.682v30c0 5.583-3.834 10.236-9 11.574v-16.263c0-5.799-4.701-10.5-10.5-10.5-5.802 0-10.5 4.701-10.5 10.5v16.263c-5.169-1.338-9-5.991-9-11.574v-30c0-5.709 3.996-10.467 9.336-11.682zM46.5 60c4.143 0 7.5 3.357 7.5 7.5v21c0 4.143-3.357 7.5-7.5 7.5s-7.5-3.357-7.5-7.5v-21c0-4.143 3.357-7.5 7.5-7.5z"></path>
</svg>
<svg id="camera" width="126" height="96" viewBox="0 0 126 96" x="448" y="0">
<path fill="#000000" d="M118.5 18h-22.5c-5.781 0-5.994-5.391-6-6v-3c0-3.774-4.17-9-12-9h-29.907c-8.805 0-12 5.382-12 9v2.982c-0.003 0.246-0.144 6.018-6.093 6.018h-22.5c-4.137 0-7.5 3.366-7.5 7.5v54c0 4.134 3.363 7.5 7.5 7.5h18c0.828 0 1.5-0.672 1.5-1.5s-0.672-1.5-1.5-1.5h-18c-2.481 0-4.5-2.019-4.5-4.5v-37.5h24c-1.932 4.62-3 9.687-3 15 0 21.504 17.496 39 39 39s39-17.496 39-39c0-5.313-1.077-10.38-3.009-15h24.009v37.5c0 2.481-2.019 4.5-4.5 4.5h-21c-0.828 0-1.5 0.672-1.5 1.5s0.672 1.5 1.5 1.5h21c4.137 0 7.5-3.366 7.5-7.5v-54c0-4.134-3.363-7.5-7.5-7.5zM63 93c-19.851 0-36-16.149-36-36s16.149-36 36-36 36 16.149 36 36-16.149 36-36 36zM98.25 39c-0.222 0-0.429 0.054-0.618 0.141-6.492-12.537-19.566-21.141-34.632-21.141s-28.14 8.604-34.632 21.141c-0.189-0.087-0.396-0.141-0.618-0.141h-24.75v-13.5c0-2.481 2.019-4.5 4.5-4.5h22.5c7.104 0 9.057-5.874 9.093-9v-3c0-2.412 2.397-6 9-6h29.907c6.282 0 9 3.972 9 6v3c0 3.114 1.881 9 9 9h22.5c2.481 0 4.5 2.019 4.5 4.5v13.5h-24.75zM28.5 15c0.828 0 1.5-0.672 1.5-1.5v-3c0-2.481-2.019-4.5-4.5-4.5h-12c-2.481 0-4.5 2.019-4.5 4.5v3c0 0.828 0.672 1.5 1.5 1.5s1.5-0.672 1.5-1.5v-3c0-0.828 0.675-1.5 1.5-1.5h12c0.825 0 1.5 0.672 1.5 1.5v3c0 0.828 0.672 1.5 1.5 1.5zM63 30c-14.889 0-27 12.114-27 27s12.111 27 27 27 27-12.114 27-27-12.111-27-27-27zM63 81c-13.233 0-24-10.767-24-24s10.767-24 24-24 24 10.767 24 24-10.767 24-24 24z"></path>
</svg>
<svg id="telescope" width="105" height="96" viewBox="0 0 105 96" x="560" y="0">
<path fill="#000000" d="M82.392 6.942c-0.159-0.396-0.477-0.705-0.876-0.852-0.399-0.144-0.843-0.117-1.218 0.081l-35.718 18.846c-0.672 0.354-0.972 1.155-0.699 1.863l0.735 1.923-20.619 11.307c-0.675 0.369-0.96 1.185-0.666 1.89l0.684 1.647-21.897 10.464c-0.72 0.345-1.044 1.191-0.738 1.929l4.494 10.83c0.24 0.576 0.795 0.927 1.386 0.927 0.168 0 0.336-0.027 0.501-0.087l22.875-8.103 0.684 1.647c0.237 0.573 0.792 0.927 1.386 0.927 0.138 0 0.276-0.018 0.417-0.060l21.828-6.291 0.654 1.707c0.222 0.591 0.789 0.963 1.395 0.963 0.147 0 0.294-0.021 0.441-0.066l39-12c0.402-0.123 0.732-0.408 0.912-0.786s0.195-0.816 0.039-1.203l-15-37.503zM8.1 64.407l-3.402-8.202 20.469-9.783 4.317 10.41-21.384 7.575zM33.573 58.869l-0.714-1.722c0 0 0 0 0 0l-5.529-13.335c0 0 0 0 0 0l-0.714-1.719 19.008-10.425 7.122 18.402 1.125 2.943-20.298 5.856zM57.9 55.155l-0.609-1.593c-0.009-0.033-0.003-0.072-0.018-0.105l-1.854-4.791-8.262-21.618 33.069-17.445 13.776 34.44-36.102 11.112zM86.892 0.942c-0.309-0.771-1.185-1.143-1.95-0.837-0.768 0.309-1.143 1.182-0.837 1.95l18 45c0.237 0.588 0.801 0.945 1.395 0.945 0.186 0 0.375-0.033 0.558-0.108 0.768-0.309 1.143-1.182 0.837-1.95l-18.003-45zM54 63h-9c-3.42 0-6 2.58-6 6v3.945l-17.637 20.577c-0.54 0.627-0.468 1.575 0.162 2.115 0.282 0.243 0.63 0.363 0.975 0.363 0.423 0 0.843-0.177 1.137-0.525l17.553-20.475h6.81v19.5c0 0.828 0.672 1.5 1.5 1.5s1.5-0.672 1.5-1.5v-19.5h6.81l17.55 20.475c0.297 0.348 0.717 0.525 1.14 0.525 0.345 0 0.693-0.12 0.975-0.363 0.63-0.54 0.702-1.485 0.162-2.115l-17.637-20.577v-3.72c0-3.489-2.634-6.225-6-6.225zM57 72h-15v-3c0-1.767 1.233-3 3-3h9c1.71 0 3 1.386 3 3.225v2.775z"></path>
</svg>
<svg id="beaker" width="81" height="96" viewBox="0 0 81 96" x="0" y="112">
<path fill="#000000" d="M52.5 3c0.828 0 1.5-0.672 1.5-1.5s-0.672-1.5-1.5-1.5h-27c-0.828 0-1.5 0.672-1.5 1.5s0.672 1.5 1.5 1.5h27zM2.97 82.905c-3.222 4.533-2.862 7.494-1.992 9.18 0.921 1.785 3.321 3.915 9.522 3.915h60c6.201 0 8.601-2.13 9.522-3.918 0.87-1.686 1.23-4.647-1.944-9.102l-18.657-29.85-0.264-0.372c-1.341-1.914-8.157-13.692-8.157-23.508v-21.75c0-0.828-0.672-1.5-1.5-1.5h-21c-0.828 0-1.5 0.672-1.5 1.5v21.75c0 10.473-7.395 23.871-7.479 24.015l-16.551 29.64zM77.358 90.705c-0.753 1.461-3.252 2.295-6.858 2.295h-60c-3.606 0-6.105-0.834-6.858-2.295-0.687-1.332-0.060-3.486 1.86-6.198l14.997-26.844 0.021 0.012c2.73 1.575 5.553 3.204 11.157 3.204s8.43-1.626 11.157-3.198c2.499-1.44 4.857-2.802 9.66-2.802 1.821 0 3.399 0.225 4.851 0.63l18.24 29.136c1.833 2.574 2.46 4.728 1.773 6.060zM30 29.25v-20.25h18v20.25c0 8.52 4.548 18.126 7.212 22.806-0.87-0.099-1.755-0.177-2.715-0.177-5.607 0-8.43 1.626-11.157 3.198-2.499 1.44-4.857 2.802-9.66 2.802s-7.161-1.362-9.657-2.802l-0.057-0.033 0.138-0.246c0.075-0.12 7.896-14.058 7.896-25.548z"></path>
</svg>
<svg id="globe" width="75" height="96" viewBox="0 0 75 96" x="112" y="112">
<path fill="#000000" d="M40.656 66c17.37 0 31.5-14.13 31.5-31.5s-14.13-31.5-31.5-31.5-31.5 14.13-31.5 31.5 14.13 31.5 31.5 31.5zM40.656 6c15.714 0 28.5 12.786 28.5 28.5s-12.786 28.5-28.5 28.5-28.5-12.786-28.5-28.5 12.783-28.5 28.5-28.5zM27.156 84c-3.423 0-6 2.577-6 6v4.5c0 0.828 0.672 1.5 1.5 1.5h36c0.828 0 1.5-0.672 1.5-1.5v-4.275c0-3.492-2.637-6.225-6-6.225h-27zM57.156 90.225v2.775h-33v-3c0-1.767 1.233-3 3-3h27c1.71 0 3 1.386 3 3.225zM39.165 74.934c0 0.018-0.009 0.030-0.009 0.048v4.812c0 0.828 0.672 1.5 1.5 1.5s1.5-0.672 1.5-1.5v-4.812c0-0.021-0.012-0.039-0.012-0.060 9.699-0.387 18.804-4.128 25.914-10.743l3.54 3.537c0.585 0.585 1.536 0.585 2.121 0s0.585-1.536 0-2.121l-4.578-4.578c-0.585-0.585-1.536-0.585-2.121 0-7.086 7.083-16.503 10.983-26.52 10.983s-19.434-3.9-26.517-10.983-10.983-16.5-10.983-26.517 3.9-19.434 10.983-26.517c0.585-0.585 0.585-1.536 0-2.121l-4.578-4.578c-0.585-0.585-1.536-0.585-2.121 0s-0.585 1.536 0 2.121l3.537 3.54c-6.993 7.509-10.821 17.241-10.821 27.555 0 10.815 4.212 20.988 11.862 28.638 7.332 7.332 16.989 11.463 27.303 11.796z"></path>
</svg>
<svg id="genius" width="90" height="96" viewBox="0 0 90 96" x="224" y="112">
<path fill="#000000" d="M1.701 72c2.355 4.080 7.644 6.237 15.291 6.237 0 0 0 0 0.003 0 3.438 0 7.221-0.483 11.166-1.314 3.798 11.637 9.861 19.077 16.839 19.077s13.041-7.44 16.839-19.077c3.948 0.828 7.731 1.314 11.169 1.314 0 0 0 0 0 0 7.644 0 12.933-2.157 15.288-6.237 3.048-5.283 0.351-14.16-8.898-24 9.249-9.84 11.946-18.717 8.898-24-2.355-4.080-7.644-6.237-15.291-6.237-3.438 0-7.224 0.483-11.169 1.314-3.795-11.637-9.858-19.077-16.836-19.077s-13.041 7.44-16.839 19.077c-3.948-0.831-7.734-1.314-11.169-1.314-7.647 0-12.936 2.157-15.291 6.237-3.048 5.283-0.351 14.16 8.898 24-9.249 9.84-11.949 18.717-8.898 24zM45 93c-5.517 0-10.548-6.597-13.881-16.737 4.509-1.143 9.198-2.76 13.881-4.797 4.683 2.037 9.372 3.654 13.881 4.797-3.333 10.14-8.364 16.737-13.881 16.737zM27 48c0-3.492 0.186-6.891 0.504-10.179 2.679-1.866 5.511-3.684 8.496-5.409 2.952-1.704 5.973-3.231 9-4.599 3.027 1.365 6.048 2.892 9 4.599 2.985 1.722 5.814 3.54 8.496 5.409 0.318 3.288 0.504 6.687 0.504 10.179s-0.186 6.891-0.504 10.179c-2.679 1.866-5.511 3.684-8.496 5.409-2.952 1.704-5.973 3.231-9 4.599-3.027-1.365-6.048-2.892-9-4.599-2.985-1.722-5.814-3.54-8.496-5.409-0.318-3.288-0.504-6.687-0.504-10.179zM24.294 55.869c-3.438-2.583-6.552-5.235-9.258-7.869 2.706-2.634 5.82-5.286 9.258-7.869-0.177 2.562-0.294 5.175-0.294 7.869s0.117 5.307 0.294 7.869zM27.963 33.858c0.552-4.023 1.326-7.812 2.292-11.262 3.585 0.903 7.305 2.151 11.046 3.657-2.286 1.107-4.566 2.271-6.801 3.561-2.319 1.341-4.464 2.691-6.537 4.044zM48.696 26.253c3.741-1.506 7.461-2.754 11.046-3.657 0.966 3.45 1.74 7.239 2.292 11.262-2.070-1.353-4.218-2.703-6.537-4.044-2.232-1.29-4.512-2.454-6.801-3.561zM65.706 40.131c3.441 2.583 6.552 5.232 9.258 7.869-2.706 2.634-5.82 5.286-9.258 7.869 0.177-2.562 0.294-5.175 0.294-7.869s-0.117-5.307-0.294-7.869zM62.037 62.142c-0.552 4.023-1.326 7.812-2.292 11.262-3.585-0.903-7.305-2.151-11.046-3.657 2.289-1.104 4.569-2.271 6.804-3.561 2.316-1.341 4.461-2.691 6.534-4.044zM34.5 66.186c2.235 1.29 4.515 2.457 6.804 3.561-3.741 1.506-7.461 2.754-11.046 3.657-0.966-3.45-1.74-7.239-2.292-11.262 2.070 1.353 4.215 2.703 6.534 4.044zM85.701 70.5c-1.764 3.057-6.27 4.737-12.69 4.737-3.168 0-6.654-0.438-10.296-1.185 1.188-4.272 2.079-9.024 2.631-14.124 4.638-3.252 8.553-6.504 11.82-9.687 7.596 8.046 11.178 15.678 8.535 20.259zM73.008 20.763c6.42 0 10.929 1.683 12.69 4.737 2.646 4.581-0.939 12.213-8.535 20.259-3.267-3.18-7.182-6.435-11.82-9.687-0.552-5.1-1.443-9.852-2.631-14.124 3.642-0.747 7.131-1.185 10.296-1.185zM45 3c5.517 0 10.548 6.597 13.881 16.737-4.509 1.143-9.198 2.76-13.881 4.797-4.683-2.037-9.372-3.654-13.881-4.797 3.333-10.14 8.364-16.737 13.881-16.737zM4.299 25.5c1.764-3.057 6.27-4.737 12.69-4.737 3.168 0 6.654 0.438 10.296 1.185-1.188 4.272-2.079 9.024-2.631 14.124-4.638 3.252-8.553 6.504-11.82 9.687-7.596-8.046-11.178-15.678-8.535-20.259zM12.834 50.241c3.267 3.18 7.182 6.435 11.82 9.687 0.552 5.1 1.443 9.852 2.631 14.124-3.639 0.747-7.125 1.185-10.293 1.185 0 0-0.003 0-0.003 0-6.42 0-10.929-1.683-12.69-4.737-2.643-4.581 0.939-12.213 8.535-20.259zM45 55.5c4.134 0 7.5-3.363 7.5-7.5s-3.366-7.5-7.5-7.5-7.5 3.363-7.5 7.5 3.366 7.5 7.5 7.5zM45 43.5c2.481 0 4.5 2.019 4.5 4.5s-2.019 4.5-4.5 4.5-4.5-2.019-4.5-4.5 2.019-4.5 4.5-4.5z"></path>
</svg>
<svg id="food" width="96" height="96" viewBox="0 0 96 96" x="336" y="112">
<path fill="#000000" d="M88.5 63h-8.073c-0.135-0.717-0.3-1.419-0.48-2.118l14.397-7.197c1.482-0.741 2.079-2.544 1.341-4.026-0.744-1.482-2.538-2.076-4.026-1.341l-13.734 6.864c-5.238-11.304-16.665-19.182-29.925-19.182-16.146 0-29.595 11.664-32.427 27h-8.073c-4.134 0-7.5 3.363-7.5 7.5 0 1.47 0.54 2.889 1.515 3.987l10.485 11.796v2.217c0 4.137 3.366 7.5 7.5 7.5h57c4.137 0 7.5-3.363 7.5-7.5v-2.217l10.482-11.796c0.978-1.098 1.518-2.517 1.518-3.987 0-4.137-3.363-7.5-7.5-7.5zM77.397 63h-1.686l1.494-0.75c0.057 0.252 0.138 0.495 0.192 0.75zM48 39c12.087 0 22.5 7.2 27.246 17.523l-2.673 1.335c-4.248-9.345-13.638-15.858-24.573-15.858-12.846 0-23.577 8.979-26.31 21h-3.084c2.787-13.677 14.907-24 29.394-24zM61.728 63c-2.319-5.289-7.593-9-13.728-9s-11.406 3.711-13.728 9h-3.222c2.478-6.978 9.129-12 16.95-12 7.395 0 13.764 4.488 16.524 10.881l-2.796 1.119zM48 60c-2.649 0-5.010 1.173-6.66 3h-3.672c2.082-3.567 5.91-6 10.332-6 4.419 0 8.25 2.433 10.329 6h-3.675c-1.644-1.827-4.005-3-6.654-3zM48 48c-9.495 0-17.526 6.336-20.115 15h-3.096c2.676-10.332 12.051-18 23.211-18 9.738 0 18.129 5.844 21.885 14.202l-2.679 1.338c-3.264-7.371-10.641-12.54-19.206-12.54zM78 84v4.5c0 0.828-0.675 1.5-1.5 1.5h-57c-0.828 0-1.5-0.672-1.5-1.5v-4.5l-12-13.5c0-0.828 0.672-1.5 1.5-1.5h81c0.825 0 1.5 0.672 1.5 1.5l-12 13.5zM23.931 35.136c-0.021-0.042-0.036-0.081-0.054-0.126-1.557-3.759-0.009-7.446 1.389-10.773 1.323-3.156 2.496-5.952 1.284-8.679-0.006-0.012-0.009-0.024-0.015-0.036-0.003-0.009-0.006-0.018-0.009-0.027-0.003-0.006-0.003-0.012-0.003-0.018-0.060-0.159-0.096-0.327-0.096-0.507 0-0.81 0.657-1.47 1.47-1.47 0.624 0 1.155 0.39 1.368 0.939 1.674 3.813 0.153 7.563-1.266 10.941-1.314 3.126-2.382 6.030-1.257 8.676 0.006 0.021 0.006 0.039 0 0.060 0.033 0.12 0.054 0.246 0.054 0.375 0 0.831-0.675 1.509-1.506 1.509-0.582 0-1.080-0.33-1.329-0.81-0.003 0-0.006 0-0.006 0-0.009-0.018-0.015-0.036-0.024-0.054zM60.462 34.698c-0.018-0.039-0.033-0.081-0.048-0.12-1.557-3.759-0.012-7.449 1.383-10.776 1.326-3.156 2.496-5.952 1.284-8.679 0-0.012-0.006-0.024-0.012-0.036-0.006-0.009-0.006-0.018-0.012-0.027 0-0.006 0-0.012 0-0.018-0.057-0.159-0.099-0.327-0.099-0.507 0-0.81 0.66-1.47 1.47-1.47 0.627 0 1.155 0.387 1.371 0.939 1.674 3.813 0.153 7.563-1.266 10.941-1.314 3.126-2.379 6.030-1.26 8.676 0.012 0.021 0.012 0.039 0.006 0.060 0.030 0.12 0.054 0.246 0.054 0.375 0 0.831-0.681 1.509-1.512 1.509-0.579 0-1.077-0.333-1.329-0.813h-0.006c-0.006-0.018-0.012-0.036-0.024-0.054zM45.057 21.636c-0.021-0.042-0.036-0.081-0.057-0.123-1.56-3.759-0.012-7.449 1.386-10.776 1.323-3.156 2.496-5.952 1.284-8.679-0.003-0.012-0.009-0.024-0.012-0.036-0.003-0.009-0.006-0.018-0.009-0.027-0.003-0.006-0.003-0.012-0.003-0.018-0.060-0.159-0.096-0.327-0.096-0.507 0-0.81 0.66-1.47 1.47-1.47 0.627 0 1.155 0.39 1.371 0.942 1.674 3.813 0.153 7.563-1.266 10.941-1.314 3.126-2.382 6.030-1.257 8.676 0.006 0.021 0.006 0.039 0 0.060 0.033 0.12 0.054 0.246 0.054 0.375 0 0.831-0.675 1.509-1.506 1.509-0.579 0-1.077-0.333-1.329-0.813-0.003 0-0.006 0-0.006 0-0.009-0.018-0.015-0.036-0.024-0.054z"></path>
</svg>
<svg id="shop" width="96" height="96" viewBox="0 0 96 96" x="448" y="112">
<path fill="#000000" d="M94.2 33.6l-9-11.994c-0.351-0.471-0.768-0.879-1.2-1.269v-14.337c0-3.312-2.688-6-6-6h-60c-3.315 0-6 2.688-6 6v14.34c-0.432 0.387-0.849 0.792-1.2 1.26l-8.997 11.997c-1.164 1.548-1.803 3.465-1.803 5.403v3c0 4.962 4.038 9 9 9v0 39c0 3.312 2.688 6 6 6h66c3.312 0 6-2.688 6-6v-39c4.962 0 9-4.038 9-9v-3c0-1.938-0.639-3.855-1.8-5.4zM78 6v12h-60v-12h60zM30.579 45h-12.567l12-21h6.567l-6 21zM39.702 24h6.798v21h-12.798l6-21zM49.5 24h6.798l6 21h-12.798v-21zM59.415 24h6.567l12 21h-12.567l-6-21zM6 42v-3c0-0.651 0.21-1.281 0.6-1.8l9-12c0.567-0.756 1.455-1.2 2.4-1.2h8.556l-12 21h-5.556c-1.656 0-3-1.341-3-3zM60 90h-22.5v-30h22.5v30zM81 90h-18v-30c0-1.659-1.347-3-3-3h-22.5c-1.656 0-3 1.341-3 3v30h-19.5v-39h66v39zM90 42c0 1.659-1.341 3-3 3h-5.562l-12-21h8.562c0.942 0 1.833 0.444 2.397 1.2l9 12c0.393 0.519 0.603 1.149 0.603 1.8v3z"></path>
</svg>
<svg id="truck2" width="96" height="96" viewBox="0 0 96 96" x="560" y="112">
<path fill="#000000" d="M74.496 34.335c-0.558-0.834-1.494-1.335-2.496-1.335h-3c-1.659 0-3 1.341-3 3v18c0 1.659 1.341 3 3 3h12c1.659 0 3-1.341 3-3v-4.5c0-0.591-0.177-1.173-0.504-1.665l-9-13.5zM81 54h-12v-18h3l9 13.5v4.5zM94.488 46.008l-12-18c-1.674-2.511-4.476-4.008-7.488-4.008h-12v-6c0-4.962-4.038-9-9-9h-45c-4.962 0-9 4.038-9 9v33c0 4.962 4.038 9 9 9v0 9c0 4.962 4.038 9 9 9h3.426c1.341 5.163 6 9 11.577 9 5.571 0 10.23-3.837 11.571-9h15.846c1.341 5.163 6 9 11.577 9 5.571 0 10.23-3.837 11.571-9h3.432c4.962 0 9-4.038 9-9v-18c0-1.782-0.522-3.51-1.512-4.992zM9 54c-1.656 0-3-1.341-3-3v-33c0-1.659 1.344-3 3-3h45c1.659 0 3 1.341 3 3v33c0 1.659-1.341 3-3 3h-45zM33.003 81c-3.315 0-6-2.688-6-6s2.685-6 6-6c3.312 0 6 2.688 6 6s-2.691 6-6 6zM72 81c-3.315 0-6-2.688-6-6s2.685-6 6-6c3.312 0 6 2.688 6 6s-2.688 6-6 6zM90 69c0 1.659-1.341 3-3 3h-3.429c-1.341-5.163-6-9-11.571-9-5.577 0-10.236 3.837-11.577 9h-15.846c-1.341-5.163-6-9-11.571-9-5.577 0-10.236 3.837-11.577 9h-3.429c-1.656 0-3-1.341-3-3v-9h39c4.962 0 9-4.038 9-9v-21h12c1.002 0 1.938 0.501 2.496 1.335l12 18c0.327 0.492 0.504 1.074 0.504 1.665v18z"></path>
</svg>
<svg id="server" width="96" height="96" viewBox="0 0 96 96" x="0" y="224">
<path fill="#000000" d="M48 4q8.187 0 15.844 0.984t14.047 2.875 10.25 5.031 3.859 7.109v56q0 3.969-3.859 7.109t-10.25 5.031-14.047 2.875-15.844 0.984-15.844-0.984-14.047-2.875-10.25-5.031-3.859-7.109v-56q0-3.969 3.859-7.109t10.25-5.031 14.047-2.875 15.844-0.984zM84 75.938v-18.219q-6.125 3.094-15.781 4.688t-20.219 1.594-20.219-1.594-15.781-4.688v18.281q0.188 0.687 1.672 1.656t4.547 2.094 7.125 2.063 10.031 1.563 12.625 0.625 12.625-0.625 10.031-1.578 7.125-2.078 4.547-2.094 1.672-1.688zM84 47.937v-18.219q-6.125 3.094-15.781 4.688t-20.219 1.594-20.219-1.594-15.781-4.688v18.281q0.188 0.687 1.672 1.656t4.547 2.094 7.125 2.063 10.031 1.563 12.625 0.625 12.625-0.625 10.016-1.563 7.109-2.063 4.563-2.109 1.688-1.703zM48 12q-6.594 0-12.531 0.625t-9.969 1.547-7.109 2.031-4.609 2.094-1.781 1.703q0.25 0.719 1.781 1.703t4.609 2.094 7.109 2.031 9.969 1.547 12.531 0.625 12.531-0.625 9.969-1.547 7.109-2.031 4.609-2.094 1.781-1.703q-0.25-0.719-1.781-1.703t-4.609-2.094-7.109-2.031-9.969-1.547-12.531-0.625z"></path>
</svg>
<svg id="layers" width="96" height="96" viewBox="0 0 96 96" x="112" y="224">
<path fill="#000000" d="M0 28l48-24 48 24-48 24zM48 77.031l39-19.531 9 4.5-48 24.031-48-24.031 9-4.5zM48 60.031l39-19.5 9 4.5-48 24-48-24 9-4.5zM78.125 28l-30.125-15.063-30.125 15.063 30.125 15.063z"></path>
</svg>
<svg id="box" width="96" height="96" viewBox="0 0 96 96" x="224" y="224">
<path fill="#000000" d="M4 20l44-20 44 20v56l-44 20-44-20v-56zM44 42.563l-32-14.531v42.813l32 14.562v-42.844zM84 70.844v-42.813l-32 14.531v42.844zM77.5 22.188l-29.5-13.406-29.5 13.406 29.5 13.406z"></path>
</svg>
<svg id="snowflake" width="96" height="96" viewBox="0 0 96 96" x="0" y="336">
<path fill="#000000" d="M29 49.004c0 2 0.32 3.94 0.88 5.742l-8.16 4.7-14.52-3.88c-2.62-0.7-5.32 0.86-6.040 3.458-0.7 2.622 0.86 5.3 3.5 6l11.74 3.14-3.16 11.68c-0.7 2.602 0.86 5.3 3.48 6 2.64 0.7 5.34-0.86 6.040-3.476l3.88-14.442 8.54-4.902c2.22 2.020 4.92 3.542 7.9 4.344v11l-10.64 8.976c-1.92 1.98-1.92 5.18 0 7.18 1.92 1.98 5.040 1.98 6.96 0l8.6-8.878 8.6 8.878c1.92 1.98 5.040 1.98 6.958 0 1.922-2 1.922-5.2 0-7.18l-10.638-8.976v-11c2.98-0.8 5.68-2.324 7.9-4.344l8.54 4.902 3.88 14.442c0.7 2.618 3.398 4.176 6.040 3.476 2.622-0.7 4.182-3.398 3.48-6l-3.16-11.68 11.74-3.14c2.64-0.7 4.2-3.378 3.5-6-0.718-2.598-3.42-4.156-6.040-3.458l-14.522 3.878-8.158-4.7c0.558-1.8 0.878-3.742 0.878-5.742s-0.32-3.94-0.878-5.76l8.158-4.68 14.522 3.88c2.62 0.7 5.32-0.862 6.040-3.46 0.7-2.62-0.86-5.3-3.5-6l-11.74-3.14 3.16-11.68c0.702-2.6-0.86-5.298-3.48-6-2.64-0.7-5.34 0.86-6.040 3.48l-3.88 14.44-8.54 4.9c-2.22-2.020-4.92-3.54-7.9-4.34v-9l10.638-10.98c1.922-1.98 1.922-5.18 0-7.18-1.92-1.98-5.040-1.98-6.958 0l-8.6 8.884-8.6-8.88c-1.92-1.98-5.040-1.98-6.96 0-1.92 2-1.92 5.2 0 7.18l10.64 10.98v9c-2.98 0.8-5.68 2.32-7.9 4.34l-8.54-4.9-3.88-14.44c-0.7-2.622-3.4-4.18-6.040-3.48-2.62 0.702-4.18 3.4-3.48 6l3.16 11.68-11.74 3.14c-2.64 0.7-4.2 3.38-3.5 6 0.72 2.6 3.42 4.16 6.040 3.46l14.52-3.88 8.16 4.68c-0.56 1.82-0.88 3.758-0.88 5.758zM48 58.004c-4.98 0-9-4.020-9-9s4.020-9 9-9 9 4.020 9 9c0 4.98-4.020 9-9 9z"></path>
</svg>
<svg id="lightning" width="96" height="96" viewBox="0 0 96 96" x="112" y="336">
<path fill="#000000" d="M53.78 36l8.040-30.84c0.12-0.378 0.18-0.782 0.18-1.2 0-2.178-1.76-3.96-3.942-3.96-1.238 0-2.34 0.56-3.058 1.46l-40.14 52.060c-0.54 0.68-0.86 1.54-0.86 2.48 0 2.2 1.8 4 4 4h24.218l-8.040 30.84c-0.122 0.38-0.18 0.782-0.18 1.2 0.002 2.18 1.762 3.96 3.942 3.96 1.24 0 2.34-0.558 3.060-1.46l40.138-52.060c0.542-0.68 0.862-1.538 0.862-2.48 0-2.2-1.8-4-4-4h-24.22z"></path>
</svg>
<svg id="droplet" width="96" height="96" viewBox="0 0 96 96" x="224" y="336">
<path fill="#000000" d="M16 65.56c0 16.818 13.88 30.44 31 30.44 17.122 0 31-13.622 31-30.44 0-21.56-24.058-35.56-26-59.56v-1c0-2.76-2.24-5-5-5s-5 2.24-5 5v1c-2 24-26 38-26 59.56zM51.3 78c4.32-1 7.758-4.68 8.758-8.7 0.342-1.88 1.982-3.3 3.942-3.3 2.2 0 4 1.8 4 4 0 2.878-2.42 7.26-5.718 10.54-3.242 3.2-7.102 5.46-10.282 5.46-2.2 0-4-1.86-4-4.058 0-1.962 1.42-3.602 3.3-3.942z"></path>
</svg>
<svg id="weather" width="96" height="96" viewBox="0 0 96 96" x="0" y="448">
<path fill="#000000" d="M75 12c-0.996 0-1.98 0.070-2.961 0.211-5.601-7.633-14.441-12.211-24.039-12.211s-18.434 4.578-24.039 12.211c-0.981-0.141-1.965-0.211-2.961-0.211-11.578 0-21 9.422-21 21s9.422 21 21 21c2.567 0 5.078-0.469 7.445-1.375 5.429 4.734 12.336 7.375 19.555 7.375 7.227 0 14.125-2.641 19.555-7.375 2.367 0.906 4.879 1.375 7.445 1.375 11.578 0 21-9.422 21-21s-9.422-21-21-21zM75 48c-1.82 0-3.602-0.328-5.297-0.977l-3.375-1.297-2.719 2.375c-4.359 3.805-9.902 5.898-15.609 5.898s-11.25-2.094-15.609-5.898l-2.719-2.375-3.375 1.297c-1.688 0.648-3.476 0.977-5.297 0.977-8.273 0-15-6.731-15-15s6.727-15 15-15c0.711 0 1.406 0.051 2.109 0.149l3.555 0.516 2.129-2.898c4.559-6.207 11.559-9.766 19.207-9.766 7.652 0 14.648 3.555 19.203 9.762l2.133 2.902 3.562-0.516c0.695-0.098 1.391-0.149 2.102-0.149 8.273 0 15 6.731 15 15s-6.727 15-15 15zM18 60c-3.317 0-6 2.684-6 6s2.683 6 6 6 6-2.684 6-6-2.683-6-6-6zM48 66c-3.316 0-6 2.684-6 6s2.684 6 6 6 6-2.684 6-6-2.684-6-6-6zM78 60c-3.316 0-6 2.684-6 6s2.684 6 6 6 6-2.684 6-6-2.684-6-6-6zM66 84c-3.316 0-6 2.684-6 6s2.684 6 6 6 6-2.684 6-6-2.684-6-6-6zM30 84c-3.316 0-6 2.684-6 6s2.684 6 6 6 6-2.684 6-6-2.684-6-6-6z"></path>
</svg>
<svg id="snowy5" width="96" height="96" viewBox="0 0 96 96" x="112" y="448">
<path fill="#000000" d="M61.133 83.191l-3.375-1.945c0.102-0.586 0.18-1.183 0.18-1.805s-0.078-1.219-0.188-1.805l3.383-1.949c1.578-0.922 2.117-2.949 1.211-4.52-0.914-1.59-2.938-2.133-4.523-1.219l-3.41 1.969c-0.914-0.777-1.945-1.387-3.094-1.801v-3.918c0-1.832-1.488-3.316-3.316-3.316s-3.312 1.484-3.312 3.316v3.914c-1.149 0.41-2.184 1.027-3.098 1.805l-3.402-1.969c-1.59-0.914-3.617-0.375-4.531 1.215-0.914 1.578-0.363 3.609 1.219 4.524l3.367 1.945c-0.109 0.59-0.18 1.188-0.18 1.809s0.070 1.219 0.18 1.804l-3.367 1.945c-1.586 0.914-2.133 2.953-1.219 4.535s2.941 2.121 4.523 1.207l3.406-1.957c0.914 0.773 1.949 1.383 3.102 1.793v3.926c0 1.828 1.484 3.305 3.312 3.305s3.316-1.477 3.316-3.305v-3.926c1.148-0.41 2.192-1.020 3.098-1.805l3.406 1.969c1.586 0.914 3.609 0.375 4.523-1.207s0.375-3.609-1.211-4.535zM48 82.758c-1.828 0-3.316-1.488-3.316-3.316s1.488-3.309 3.316-3.309 3.313 1.481 3.313 3.309-1.484 3.316-3.313 3.316zM88.906 74.297l-2.266-0.602c-0.055-0.719-0.227-1.402-0.543-2.059l1.645-1.645c0.773-0.773 0.77-2.023 0-2.785-0.766-0.769-2.008-0.773-2.781 0l-1.648 1.641c-0.649-0.305-1.34-0.48-2.055-0.539l-0.602-2.262c-0.281-1.047-1.359-1.676-2.414-1.395-1.051 0.285-1.664 1.363-1.391 2.414l0.602 2.231c-0.297 0.203-0.578 0.43-0.844 0.688-0.258 0.266-0.477 0.547-0.68 0.836l-2.23-0.602c-1.051-0.281-2.137 0.352-2.418 1.395-0.281 1.055 0.352 2.129 1.391 2.414l2.25 0.605c0.063 0.707 0.242 1.398 0.559 2.055l-1.652 1.652c-0.766 0.769-0.762 2.012 0.008 2.777 0.766 0.766 2.008 0.773 2.773 0.008l1.656-1.656c0.649 0.32 1.344 0.5 2.063 0.554l0.594 2.254c0.289 1.051 1.359 1.676 2.414 1.395 1.047-0.281 1.679-1.359 1.398-2.422l-0.602-2.231c0.281-0.199 0.57-0.422 0.836-0.68 0.258-0.262 0.477-0.551 0.68-0.84l2.234 0.602c1.051 0.281 2.133-0.348 2.41-1.391 0.281-1.047-0.34-2.125-1.387-2.414zM82.184 75.551c-0.773 0.773-2.020 0.77-2.789 0-0.762-0.762-0.77-2.012 0-2.785 0.769-0.766 2.020-0.766 2.789 0 0.762 0.769 0.762 2.023 0 2.785zM22.301 64.219l-2.227 0.598c-0.207-0.281-0.422-0.566-0.684-0.832-0.265-0.258-0.547-0.48-0.84-0.68l0.598-2.238c0.281-1.051-0.344-2.133-1.383-2.41-1.055-0.281-2.133 0.344-2.414 1.391l-0.609 2.262c-0.715 0.059-1.398 0.234-2.051 0.543l-1.652-1.645c-0.773-0.773-2.016-0.77-2.781 0-0.769 0.77-0.769 2.016 0 2.785l1.645 1.645c-0.309 0.656-0.488 1.348-0.543 2.059l-2.258 0.602c-1.055 0.289-1.68 1.359-1.398 2.414 0.285 1.047 1.363 1.664 2.418 1.391l2.227-0.606c0.199 0.301 0.422 0.582 0.691 0.844 0.258 0.258 0.539 0.488 0.832 0.68l-0.598 2.23c-0.281 1.055 0.344 2.141 1.39 2.422 1.055 0.281 2.125-0.344 2.406-1.395l0.609-2.25c0.715-0.059 1.406-0.238 2.063-0.551l1.648 1.648c0.766 0.773 2.008 0.758 2.781-0.008 0.762-0.762 0.773-2.008 0-2.777l-1.652-1.652c0.317-0.649 0.504-1.348 0.551-2.063l2.262-0.598c1.043-0.285 1.668-1.359 1.387-2.414-0.281-1.043-1.36-1.668-2.418-1.394zM16.605 69.555c-0.769 0.77-2.016 0.77-2.789 0-0.762-0.766-0.762-2.020 0-2.781 0.773-0.766 2.020-0.766 2.789 0s0.762 2.016 0 2.781zM96 33c0-11.578-9.422-21-21-21-0.996 0-1.98 0.070-2.961 0.211-5.601-7.633-14.441-12.211-24.039-12.211s-18.434 4.578-24.039 12.211c-0.981-0.141-1.965-0.211-2.961-0.211-11.578 0-21 9.422-21 21s9.422 21 21 21c2.567 0 5.078-0.469 7.445-1.375 5.429 4.734 12.336 7.375 19.555 7.375 7.227 0 14.125-2.641 19.555-7.375 2.367 0.906 4.879 1.375 7.445 1.375 11.578 0 21-9.422 21-21z"></path>
</svg>
<svg id="droplet2" width="96" height="96" viewBox="0 0 96 96" x="224" y="448">
<path fill="#000000" d="M81.059 44.359c-6.164-17.197-19.229-32.639-33.059-44.359-13.83 11.72-26.894 27.161-33.059 44.359-3.812 10.635-4.189 22.178 1.18 32.381 6.173 11.732 18.622 19.26 31.879 19.26s25.706-7.528 31.879-19.26c5.369-10.204 4.992-21.746 1.18-32.381zM69.259 71.152c-4.106 7.805-12.451 12.848-21.259 12.848-5.168 0-10.174-1.738-14.26-4.749 1.241 0.162 2.497 0.249 3.761 0.249 11.009 0 21.438-6.301 26.569-16.054 4.207-7.996 3.842-16.298 2.239-22.907 1.365 2.639 2.522 5.269 3.454 7.869 2.119 5.912 3.752 14.657-0.503 22.744z"></path>
</svg>
<svg id="leaf" width="96" height="96" viewBox="0 0 96 96" x="336" y="448">
<path fill="#000000" d="M94.812 12.609c-10.383-7.868-26.361-12.566-42.742-12.566-20.261 0-36.771 7.074-45.296 19.408-4.004 5.793-6.218 12.652-6.582 20.388-0.324 6.888 0.833 14.506 3.439 22.701 8.894-26.661 33.733-47.541 62.369-47.541 0 0-26.796 7.053-43.643 28.893-0.011 0.013-0.234 0.29-0.62 0.815-3.383 4.526-6.332 9.671-8.539 15.499-3.738 8.89-7.199 21.089-7.199 35.792h12c0 0-1.822-11.458 1.346-24.637 5.24 0.708 9.924 1.060 14.142 1.060 11.032 0 18.878-2.387 24.693-7.512 5.209-4.592 8.081-10.761 11.121-17.293 4.643-9.976 9.905-21.282 25.186-30.014 0.875-0.5 1.44-1.405 1.505-2.411s-0.379-1.976-1.182-2.585z"></path>
</svg>
<svg id="fire" width="96" height="96" viewBox="0 0 96 96" x="448" y="448">
<path fill="#000000" d="M30.094 96c-6.398-13.313-2.991-20.942 1.927-28.129 5.385-7.871 6.773-15.662 6.773-15.662s4.233 5.503 2.54 14.11c7.479-8.325 8.89-21.589 7.761-26.668 16.904 11.814 24.129 37.393 14.393 56.35 51.785-29.3 12.881-73.141 6.108-78.080 2.258 4.938 2.686 13.298-1.875 17.356-7.721-29.276-26.81-35.276-26.81-35.276 2.258 15.098-8.184 31.607-18.253 43.943-0.354-6.020-0.73-10.175-3.895-15.936-0.711 10.937-9.069 19.851-11.332 30.809-3.066 14.839 2.296 25.704 22.664 37.183z"></path>
</svg>
<svg id="power" width="96" height="96" viewBox="0 0 96 96" x="560" y="448">
<path fill="#000000" d="M36 0l-36 48h36l-24 48 84-60h-48l36-36z"></path>
</svg>
</svg>
